# ProBuilder 5.0.6
# https://unity3d.com/unity/features/worldbuilding/probuilder
# 2022/12/18 下午 12:20:25

mtllib ./Middle_fbx.mtl
o Middle_fbx

g middle
v 0.02948189 -18.3343 -5.667932
v -17.43766 -18.3343 -5.667932
v 0.02948189 27.25377 -5.667932
v -17.43766 27.25377 -5.667932
v -17.43766 -18.3343 -23.13507
v -17.43766 27.25377 -23.13507
v 0.02948189 -18.3343 -23.13507
v 0.02948189 27.25377 -23.13507

vt 0.02948189 -18.3343
vt -17.43766 -18.3343
vt 0.02948189 27.25377
vt -17.43766 27.25377
vt -5.667932 -18.3343
vt -23.13507 -18.3343
vt -5.667932 27.25377
vt -23.13507 27.25377
vt 17.43766 -18.3343
vt -0.02948189 -18.3343
vt 17.43766 27.25377
vt -0.02948189 27.25377
vt 23.13507 -18.3343
vt 5.667932 -18.3343
vt 23.13507 27.25377
vt 5.667932 27.25377
vt -0.02948189 -5.667932
vt 17.43766 -5.667932
vt -0.02948189 -23.13507
vt 17.43766 -23.13507
vt 0.02948189 -23.13507
vt -17.43766 -23.13507
vt 0.02948189 -5.667932
vt -17.43766 -5.667932

vn 0 0 1
vn -1 0 0
vn 0 0 -1
vn 1 0 0
vn 0 1 0
vn 0 -1 0

usemtl purpleblock
f 3/3/1 4/4/1 2/2/1 1/1/1
f 4/7/2 6/8/2 5/6/2 2/5/2
f 6/11/3 8/12/3 7/10/3 5/9/3
f 8/15/4 3/16/4 1/14/4 7/13/4
f 8/19/5 6/20/5 4/18/5 3/17/5
f 1/23/6 2/24/6 5/22/6 7/21/6

